<svg width="1483" height="969" viewBox="0 0 1483 969" fill="none" xmlns="http://www.w3.org/2000/svg">
<path d="M74.2422 327.936C72.0519 338.581 74.6766 349.881 76.7055 360.293C83.6788 396.08 88.1924 432.299 90.121 468.789C91.4853 494.601 85.6644 516.461 78.3834 540.667" stroke="#E23235" stroke-width="3" stroke-linecap="round"/>
<path d="M165.548 351.556C133.736 341.987 115.837 409.541 102.779 428.804C99.4863 433.662 87.2892 456.269 100.476 449.046C120.914 437.852 149.834 416.997 174.224 423.379C197.478 429.464 201.791 444.824 213.229 462.882C218.819 471.708 218.15 487.137 226.512 494.221C230.565 497.655 242.498 461.547 242.69 457.218C243.56 437.578 215.515 447.016 208.457 455.679C198.163 468.312 185.598 494.437 202.135 506.755C214.162 515.714 234.89 513.921 242.86 499.993C244.536 497.065 259.237 469.358 255.797 466.074C248.554 459.159 245.472 490.594 253.616 496.393C279.624 514.909 299.425 449.931 304.171 451.359C315.521 454.773 311.519 516.823 338.961 480.409C340.513 478.349 356.445 459.392 358.165 459.91C360.968 460.753 363.361 480.51 363.617 481.63C369.578 507.762 376.426 534.15 379.749 560.823C383.913 594.244 372.516 629.114 359.628 659.872C357.326 665.364 354.274 674.187 349.166 677.873C338.631 685.477 350.053 650.58 350.195 649.985C366.743 580.878 384.473 504.16 413.851 439.063C416.171 433.922 434.027 398.173 429.889 406.717C414.716 438.042 417.95 480.674 431.349 511.617C434.358 518.565 454.576 552.633 465.528 546.891C480.407 539.09 493.154 519.139 498.385 503.37C503.269 488.65 498.11 514.961 500.806 521.188C506 533.182 519.083 519.735 522.093 512.637C526.106 503.176 547.033 520.395 551.318 523.137C577.226 539.719 590.995 507.937 593.436 485.178C597.86 443.933 580.382 396.748 561.713 361.349C560.331 358.729 547.194 338.125 551.514 346.318C555.55 353.969 558.076 355.264 555.167 364.934" stroke="#E23235" stroke-width="3" stroke-linecap="round"/>
<path d="M632.011 361.132C632.584 359.229 630.034 380.631 629.975 381.882C629.169 399.144 632.895 414.302 636.681 430.896C642.569 456.709 655.461 482.027 675.829 499.281C690.69 511.87 705.299 514.74 723.025 511.555" stroke="#E23235" stroke-width="3" stroke-linecap="round"/>
<path d="M756.29 463.883C758.075 453.47 739.261 470.164 737.515 475.966C734.432 486.216 726.399 513.613 736.566 522.464C752.745 536.548 774.487 445.518 770.527 466.884C768.803 476.185 776.922 495.213 785.755 499.449C801.527 507.014 815.311 494.062 828.173 486.36C838.243 480.331 833.978 473.463 846.305 479.211C856.974 484.185 864.318 474.752 874.55 473.394C888.47 471.547 904.307 479.21 912.388 460.85C914.293 456.522 914.145 482.765 914.23 486.185C914.478 496.151 919.78 510.318 932.431 507.467C955.229 502.33 962.89 473.573 975.905 457.313C980.254 451.879 984.938 440.421 990.529 437.359C990.964 437.121 981.681 456.986 980.287 461.621C977.074 472.303 977.756 472.183 987.4 475.724C989.045 476.328 977.085 529.263 991.491 522.242C1005.46 515.432 1013.6 505.125 1025.08 495.175C1035.17 486.422 1030.71 495.315 1028.52 502.618C1026.53 509.207 1031.15 499.652 1032.36 498.22C1041.71 487.136 1053.94 478.177 1064.8 468.672C1075.97 458.897 1076.83 446.016 1062.96 466.409C1061.38 468.724 1039.6 516.015 1055.4 508.997C1068.42 503.216 1086.59 487.907 1086.18 471.686C1086 464.177 1073.65 459.372 1080.64 461.472C1089.89 464.257 1103.34 461.786 1113.27 462.743C1143.29 465.633 1152.16 469.035 1163.55 494.104C1165.74 498.925 1163.1 507.352 1168.24 510.681C1178.41 517.27 1189.86 510.128 1197.34 503.413C1220.54 482.6 1246.45 469.052 1278 478.542" stroke="#E23235" stroke-width="3" stroke-linecap="round"/>
<path d="M1040.33 387.827C1036.38 400.986 1046.2 415.111 1058.27 400.911C1063.24 395.064 1054.29 366.613 1048.34 386.389" stroke="#E23235" stroke-width="3" stroke-linecap="round"/>
<path d="M563.843 436.757C545.005 431.09 539.331 429.126 548.18 448.281C557.35 468.127 567.662 441.751 552.369 437.151" stroke="#E23235" stroke-width="3" stroke-linecap="round"/>
<path d="M1310.98 419.248C1309.1 430.196 1335.65 426.103 1326.31 412.324C1317.94 399.988 1306.85 413.041 1314.45 420.292" stroke="#E23235" stroke-width="3" stroke-linecap="round"/>
<path d="M1353.11 405.006C1350.3 414.348 1344.34 428.166 1360.48 424.528C1375.55 421.133 1369.21 413.693 1355.52 409.576" stroke="#E23235" stroke-width="3" stroke-linecap="round"/>
<path d="M1325.73 458.292C1335 461.081 1341.31 466.826 1350.7 469.648C1359.21 472.21 1360.34 456.475 1362.27 450.058" stroke="#E23235" stroke-width="3" stroke-linecap="round"/>
<path d="M1416.74 470.289C1405.77 465.407 1417.48 414.246 1418.43 404.573C1419.35 395.178 1419.13 384.828 1422.43 375.871C1422.58 375.484 1431.83 398.327 1433.42 402.248C1436.73 410.396 1465.1 457.919 1450.01 453.379C1435.3 448.954 1421.83 441.059 1407.87 436.86C1391.03 431.792 1401.19 420.276 1415.64 420.825C1428.19 421.301 1452.38 420.759 1464.67 417.202C1492.12 409.259 1461.16 430.023 1452.03 434.762C1438.23 441.926 1415.55 453.941 1406.33 467.157" stroke="#E23235" stroke-width="3" stroke-linecap="round"/>
</svg>
