<svg width="37" height="34" viewBox="0 0 37 34" fill="none" xmlns="http://www.w3.org/2000/svg">
<path d="M24.3337 3.63789C23.91 3.29763 23.9728 2.62785 23.3222 2.66185C21.5292 2.75554 19.9479 2.4517 18.172 2.43086C12.9947 2.37008 8.65167 4.6953 5.63996 8.2159C1.66914 12.8577 0.774969 18.4308 4.47434 23.1831C8.12237 27.8694 13.7532 31.2104 20.503 31.7723C25.6898 32.2041 28.865 29.9078 31.9768 26.6475C34.6873 23.8078 36.9955 16.6495 34.1726 13.4218C30.5007 9.22338 20.9971 4.66905 14.8598 7.98304C12.6376 9.18294 11.094 12.3946 11.074 14.5195C11.0483 17.2684 14.4431 20.6307 17.197 21.8265C22.4592 24.1115 28.773 21.4548 28.3131 16.0438C27.9855 12.1883 24.1125 10.9579 20.0746 11.4339C16.7302 11.8282 16.6775 15.9706 20.3409 15.6593" stroke="#E23235" stroke-width="3" stroke-linecap="round"/>
</svg>
