<svg width="121" height="108" viewBox="0 0 121 108" fill="none" xmlns="http://www.w3.org/2000/svg">
<path d="M79.7773 8.01878C78.3286 6.85543 78.5433 4.56548 76.3189 4.68172C70.1888 5.00204 64.7823 3.96322 58.7106 3.89195C41.0095 3.68418 26.1609 11.634 15.8639 23.6709C2.28777 39.541 -0.769374 58.5954 11.8787 74.8432C24.3512 90.8655 43.6027 102.288 66.6803 104.21C84.4137 105.686 95.2696 97.8347 105.909 86.6881C115.176 76.9793 123.068 52.505 113.416 41.4698C100.862 27.1154 68.3696 11.5443 47.3862 22.8747C39.7888 26.9771 34.511 37.9576 34.4429 45.2226C34.3548 54.6211 45.9616 66.1168 55.3771 70.2052C73.3685 78.0175 94.955 68.9343 93.3828 50.4343C92.2625 37.2525 79.0209 33.0456 65.2157 34.6731C53.781 36.0212 53.6008 50.1841 66.1259 49.1197" stroke="white" stroke-width="6" stroke-linecap="round"/>
</svg>
